<svg width="302" height="347" viewBox="0 0 302 347" fill="none" xmlns="http://www.w3.org/2000/svg">
<path d="M235.708 124.638L297.791 88.8127L150.896 4V75.7176L235.708 124.638Z" stroke="white" stroke-width="7" stroke-miterlimit="10" stroke-linecap="round" stroke-linejoin="round"/>
<path d="M297.791 88.8127L235.708 124.638V222.613L297.791 258.438V88.8127Z" stroke="white" stroke-width="7" stroke-miterlimit="10" stroke-linecap="round" stroke-linejoin="round"/>
<path d="M297.791 258.438L235.708 222.613L150.896 271.533V343.251L297.791 258.438Z" stroke="white" stroke-width="7" stroke-miterlimit="10" stroke-linecap="round" stroke-linejoin="round"/>
<path d="M150.896 343.251V271.533L66.0829 222.613L4 258.438L150.896 343.251Z" stroke="white" stroke-width="7" stroke-miterlimit="10" stroke-linecap="round" stroke-linejoin="round"/>
<path d="M66.0829 222.613L4 258.438V88.8127L66.0829 124.638V222.613Z" stroke="white" stroke-width="7" stroke-miterlimit="10" stroke-linecap="round" stroke-linejoin="round"/>
<path d="M66.0829 124.638L4 88.8127L150.896 4V75.7176L66.0829 124.638Z" stroke="white" stroke-width="7" stroke-miterlimit="10" stroke-linecap="round" stroke-linejoin="round"/>
<path d="M66.083 222.613L150.896 271.533L235.708 222.613V124.638L150.896 75.7176L66.083 124.638V222.613Z" stroke="white" stroke-width="7" stroke-miterlimit="10" stroke-linecap="round" stroke-linejoin="round"/>
<path d="M150.896 75.7176L235.708 124.638L150.896 173.625L66.083 124.638L150.896 75.7176Z" stroke="white" stroke-width="7" stroke-miterlimit="10" stroke-linecap="round" stroke-linejoin="round"/>
<path d="M66.083 124.638V222.613L150.896 271.533V173.625L66.083 124.638Z" stroke="white" stroke-width="7" stroke-miterlimit="10" stroke-linecap="round" stroke-linejoin="round"/>
<path d="M150.896 273.533L235.708 224.613V126.638L150.896 175.625V273.533Z" stroke="white" stroke-width="7" stroke-miterlimit="10" stroke-linecap="round" stroke-linejoin="round"/>
</svg>
