<svg width="270" height="52" viewBox="0 0 270 52" fill="none" xmlns="http://www.w3.org/2000/svg">
<path d="M75.5841 32.75V15.2955H78.2176V22.8807H86.9193V15.2955H89.5614V32.75H86.9193V25.1392H78.2176V32.75H75.5841ZM94.69 15.2955H97.6815L102.241 23.2301H102.429L106.988 15.2955H109.98L103.647 25.8977V32.75H101.022V25.8977L94.69 15.2955ZM115.106 32.75V15.2955H121.328C122.686 15.2955 123.811 15.5426 124.703 16.0369C125.595 16.5312 126.263 17.2074 126.706 18.0653C127.149 18.9176 127.371 19.8778 127.371 20.946C127.371 22.0199 127.146 22.9858 126.697 23.8438C126.254 24.696 125.584 25.3722 124.686 25.8722C123.794 26.3665 122.672 26.6136 121.319 26.6136H117.041V24.3807H121.081C121.939 24.3807 122.635 24.233 123.169 23.9375C123.703 23.6364 124.095 23.2273 124.345 22.7102C124.595 22.1932 124.72 21.6051 124.72 20.946C124.72 20.2869 124.595 19.7017 124.345 19.1903C124.095 18.679 123.7 18.2784 123.16 17.9886C122.626 17.6989 121.922 17.554 121.047 17.554H117.74V32.75H115.106ZM133.098 32.75V15.2955H144.041V17.5625H135.731V22.8807H143.47V25.1392H135.731V30.483H144.143V32.75H133.098ZM150.199 32.75V15.2955H156.42C157.773 15.2955 158.895 15.5284 159.787 15.9943C160.685 16.4602 161.355 17.1051 161.798 17.929C162.241 18.7472 162.463 19.6932 162.463 20.767C162.463 21.8352 162.239 22.7756 161.79 23.5881C161.347 24.3949 160.676 25.0227 159.778 25.4716C158.886 25.9205 157.764 26.1449 156.412 26.1449H151.699V23.8778H156.173C157.026 23.8778 157.719 23.7557 158.253 23.5114C158.793 23.267 159.187 22.9119 159.437 22.446C159.687 21.9801 159.812 21.4205 159.812 20.767C159.812 20.108 159.685 19.5369 159.429 19.054C159.179 18.571 158.784 18.2017 158.244 17.946C157.71 17.6847 157.008 17.554 156.139 17.554H152.832V32.75H150.199ZM158.815 24.875L163.128 32.75H160.128L155.901 24.875H158.815Z" fill="black"/>
<path d="M177.827 19.8807C177.737 19.0739 177.362 18.4489 176.702 18.0057C176.043 17.5568 175.214 17.3324 174.214 17.3324C173.498 17.3324 172.879 17.446 172.356 17.6733C171.833 17.8949 171.427 18.2017 171.137 18.5938C170.853 18.9801 170.711 19.4205 170.711 19.9148C170.711 20.3295 170.808 20.6875 171.001 20.9886C171.2 21.2898 171.458 21.5426 171.776 21.7472C172.1 21.946 172.447 22.1136 172.816 22.25C173.185 22.3807 173.541 22.4886 173.881 22.5739L175.586 23.017C176.143 23.1534 176.714 23.3381 177.299 23.571C177.884 23.804 178.427 24.1108 178.927 24.4915C179.427 24.8722 179.83 25.3438 180.137 25.9062C180.45 26.4688 180.606 27.142 180.606 27.9261C180.606 28.9148 180.35 29.7926 179.839 30.5597C179.333 31.3267 178.597 31.9318 177.631 32.375C176.671 32.8182 175.509 33.0398 174.146 33.0398C172.839 33.0398 171.708 32.8324 170.754 32.4176C169.799 32.0028 169.052 31.4148 168.512 30.6534C167.972 29.8864 167.674 28.9773 167.617 27.9261H170.259C170.31 28.5568 170.515 29.0824 170.873 29.5028C171.237 29.9176 171.7 30.2273 172.262 30.4318C172.83 30.6307 173.452 30.7301 174.129 30.7301C174.873 30.7301 175.535 30.6136 176.114 30.3807C176.7 30.142 177.16 29.8125 177.495 29.392C177.83 28.9659 177.998 28.4687 177.998 27.9006C177.998 27.3835 177.85 26.9602 177.555 26.6307C177.265 26.3011 176.87 26.0284 176.37 25.8125C175.876 25.5966 175.316 25.4062 174.691 25.2415L172.629 24.679C171.231 24.2983 170.123 23.7386 169.305 23C168.492 22.2614 168.086 21.2841 168.086 20.0682C168.086 19.0625 168.359 18.1847 168.904 17.4347C169.45 16.6847 170.188 16.1023 171.12 15.6875C172.052 15.267 173.103 15.0568 174.273 15.0568C175.455 15.0568 176.498 15.2642 177.401 15.679C178.31 16.0938 179.026 16.6648 179.549 17.392C180.072 18.1136 180.344 18.9432 180.367 19.8807H177.827ZM186.393 32.75V15.2955H192.614C193.972 15.2955 195.097 15.5426 195.989 16.0369C196.882 16.5312 197.549 17.2074 197.992 18.0653C198.435 18.9176 198.657 19.8778 198.657 20.946C198.657 22.0199 198.433 22.9858 197.984 23.8438C197.541 24.696 196.87 25.3722 195.972 25.8722C195.08 26.3665 193.958 26.6136 192.606 26.6136H188.328V24.3807H192.367C193.225 24.3807 193.921 24.233 194.455 23.9375C194.989 23.6364 195.382 23.2273 195.632 22.7102C195.882 22.1932 196.007 21.6051 196.007 20.946C196.007 20.2869 195.882 19.7017 195.632 19.1903C195.382 18.679 194.987 18.2784 194.447 17.9886C193.913 17.6989 193.208 17.554 192.333 17.554H189.026V32.75H186.393ZM204.007 32.75H201.212L207.493 15.2955H210.536L216.817 32.75H214.022L209.087 18.4659H208.95L204.007 32.75ZM204.476 25.9148H213.544V28.1307H204.476V25.9148ZM235.654 20.9716H232.995C232.893 20.4034 232.703 19.9034 232.424 19.4716C232.146 19.0398 231.805 18.6733 231.402 18.3722C230.998 18.071 230.546 17.8437 230.046 17.6903C229.552 17.5369 229.027 17.4602 228.47 17.4602C227.464 17.4602 226.563 17.7131 225.768 18.2188C224.978 18.7244 224.353 19.4659 223.893 20.4432C223.438 21.4205 223.211 22.6136 223.211 24.0227C223.211 25.4432 223.438 26.642 223.893 27.6193C224.353 28.5966 224.981 29.3352 225.777 29.8352C226.572 30.3352 227.467 30.5852 228.461 30.5852C229.012 30.5852 229.535 30.5114 230.029 30.3636C230.529 30.2102 230.981 29.9858 231.385 29.6903C231.788 29.3949 232.129 29.0341 232.407 28.608C232.691 28.1761 232.887 27.6818 232.995 27.125L235.654 27.1335C235.512 27.9915 235.237 28.7812 234.828 29.5028C234.424 30.2188 233.904 30.8381 233.268 31.3608C232.637 31.8778 231.916 32.2784 231.103 32.5625C230.291 32.8466 229.404 32.9886 228.444 32.9886C226.933 32.9886 225.586 32.6307 224.404 31.9148C223.223 31.1932 222.291 30.1619 221.609 28.821C220.933 27.4801 220.595 25.8807 220.595 24.0227C220.595 22.1591 220.936 20.5597 221.617 19.2244C222.299 17.8835 223.231 16.8551 224.413 16.1392C225.595 15.4176 226.938 15.0568 228.444 15.0568C229.37 15.0568 230.234 15.1903 231.035 15.4574C231.842 15.7187 232.566 16.1051 233.208 16.6165C233.85 17.1222 234.382 17.7415 234.802 18.4744C235.223 19.2017 235.507 20.0341 235.654 20.9716ZM241.446 32.75V15.2955H252.389V17.5625H244.079V22.8807H251.818V25.1392H244.079V30.483H252.491V32.75H241.446Z" fill="#7D7D7D"/>
<g clip-path="url(#clip0_218_15)">
<path d="M38.6345 18.5949L48.0191 13.1795L25.814 0.358948V11.2L38.6345 18.5949Z" stroke="black" stroke-width="1.76726" stroke-miterlimit="10" stroke-linecap="round" stroke-linejoin="round"/>
<path d="M48.0194 13.1795L38.6348 18.5949V33.4051L48.0194 38.8205V13.1795Z" stroke="black" stroke-width="1.76726" stroke-miterlimit="10" stroke-linecap="round" stroke-linejoin="round"/>
<path d="M48.0191 38.8205L38.6345 33.4051L25.814 40.8V51.6411L48.0191 38.8205Z" stroke="black" stroke-width="1.76726" stroke-miterlimit="10" stroke-linecap="round" stroke-linejoin="round"/>
<path d="M25.814 51.6411V40.8L12.9935 33.4051L3.60889 38.8205L25.814 51.6411Z" stroke="black" stroke-width="1.76726" stroke-miterlimit="10" stroke-linecap="round" stroke-linejoin="round"/>
<path d="M12.9935 33.4051L3.60889 38.8205V13.1795L12.9935 18.5949V33.4051Z" stroke="black" stroke-width="1.76726" stroke-miterlimit="10" stroke-linecap="round" stroke-linejoin="round"/>
<path d="M12.9935 18.5949L3.60889 13.1795L25.814 0.358948V11.2L12.9935 18.5949Z" stroke="black" stroke-width="1.76726" stroke-miterlimit="10" stroke-linecap="round" stroke-linejoin="round"/>
<path d="M12.9937 33.4051L25.8142 40.8L38.6347 33.4051V18.5949L25.8142 11.2L12.9937 18.5949V33.4051Z" stroke="black" stroke-width="1.76726" stroke-miterlimit="10" stroke-linecap="round" stroke-linejoin="round"/>
<path d="M25.8142 11.2L38.6347 18.5949L25.8142 26L12.9937 18.5949L25.8142 11.2Z" stroke="black" stroke-width="1.76726" stroke-miterlimit="10" stroke-linecap="round" stroke-linejoin="round"/>
<path d="M12.9937 18.5949V33.4051L25.8142 40.8V26L12.9937 18.5949Z" stroke="black" stroke-width="1.76726" stroke-miterlimit="10" stroke-linecap="round" stroke-linejoin="round"/>
<path d="M25.814 40.8L38.6345 33.4051V18.5949L25.814 26V40.8Z" stroke="black" stroke-width="1.76726" stroke-miterlimit="10" stroke-linecap="round" stroke-linejoin="round"/>
</g>
<defs>
<clipPath id="clip0_218_15">
<rect width="52" height="52" fill="white"/>
</clipPath>
</defs>
</svg>
